<?xml version="1.0" encoding="utf-8"?>
<!-- Generator: Adobe Illustrator 16.0.0, SVG Export Plug-In . SVG Version: 6.00 Build 0)  -->
<!DOCTYPE svg PUBLIC "-//W3C//DTD SVG 1.1//EN" "http://www.w3.org/Graphics/SVG/1.1/DTD/svg11.dtd">
<svg version="1.1" id="Capa_1" xmlns="http://www.w3.org/2000/svg" xmlns:xlink="http://www.w3.org/1999/xlink" x="0px" y="0px"
	 width="16px" height="16px" viewBox="258.362 248 16 16" enable-background="new 258.362 248 16 16" xml:space="preserve">
<g>
	<g>
		<g>
			<path fill="#D95050" d="M271.569,256.902c-0.181-0.141-2.054-2.219-2.56-2.513v-5.395c0-0.548-0.443-0.989-0.988-0.989h-5.095
				c-0.549,0-0.988,0.444-0.988,0.989v9.444c0,0.548,0.444,0.989,0.988,0.989h1.636h0.584l-0.092-0.777
				c-0.028-0.026-0.049-0.042-0.078-0.068h-0.327h-0.652c0.032-0.13,0.043-0.274,0.017-0.421c-0.072-0.408-0.395-0.737-0.803-0.813
				c-0.15-0.028-0.297-0.019-0.43,0.015v-7.354c0.058,0.01,0.119,0.017,0.182,0.017c0.556,0,1.002-0.45,1.002-1.002
				c0-0.059-0.007-0.117-0.016-0.176h3.041c-0.01,0.059-0.017,0.118-0.017,0.176c0,0.555,0.446,1.002,1.002,1.002
				c0.063,0,0.124-0.007,0.183-0.017v7.176l0,0v2.063c-0.346-0.255-0.73-1.051-0.73-1.051s-0.189-2.118-1.263-2.118
				c-0.03,0-0.057,0-0.085,0.003c0,0-0.813,0.068-0.141,2.393l0.3,2.581c0,0,0.336,1.4,1.263,2.37v0.286
				c0,0.153,0.124,0.28,0.281,0.28h3.018c0.145,0,0.262-0.107,0.278-0.248c0.107-1.005,0.525-4.74,0.771-5.31
				c0.039-0.091,0.071-0.182,0.085-0.28C271.99,257.836,272.009,257.248,271.569,256.902z"/>
		</g>
		<g>
			<circle fill="#D95050" cx="265.583" cy="250.627" r="0.601"/>
		</g>
		<g>
			<g>
				<path fill="#D95050" d="M263.305,253.786c0,1.035,0.725,1.899,1.694,2.119c0.03-0.057,0.059-0.105,0.095-0.157
					c0.32-0.467,0.755-0.551,0.9-0.565c0.059-0.006,0.117-0.009,0.176-0.009c0.209,0,0.494,0.039,0.788,0.195
					c0.421-0.394,0.685-0.959,0.685-1.583c0-1.198-0.973-2.17-2.17-2.17C264.274,251.616,263.305,252.588,263.305,253.786z
					 M264.174,253.593c0.131,0,0.134,0,0.153-0.13c0.016-0.102,0.046-0.196,0.085-0.291c0.022-0.052,0.059-0.072,0.111-0.056
					c0.08,0.022,0.159,0.046,0.241,0.072c0.075,0.023,0.085,0.049,0.053,0.121c-0.073,0.146-0.103,0.296-0.092,0.46
					c0.003,0.042,0.007,0.084,0.025,0.121c0.062,0.14,0.216,0.16,0.311,0.042c0.05-0.059,0.082-0.127,0.11-0.199
					c0.053-0.124,0.102-0.249,0.163-0.362c0.206-0.373,0.672-0.474,0.993-0.209c0.113,0.094,0.191,0.218,0.231,0.362
					c0.016,0.063,0.049,0.092,0.113,0.088c0.066-0.003,0.128,0,0.193,0c0.059,0,0.088,0.029,0.088,0.085
					c0.004,0.068,0.004,0.137,0,0.206c0,0.062-0.036,0.088-0.095,0.088c-0.046,0-0.095,0-0.141,0c-0.104,0-0.107,0.003-0.123,0.104
					c-0.021,0.127-0.049,0.251-0.104,0.369c-0.046,0.091-0.069,0.101-0.163,0.075c-0.072-0.02-0.145-0.04-0.213-0.063
					c-0.081-0.025-0.091-0.049-0.053-0.124c0.069-0.128,0.104-0.265,0.125-0.408c0.013-0.092,0.003-0.183-0.036-0.268
					c-0.068-0.16-0.255-0.186-0.366-0.049c-0.038,0.046-0.064,0.098-0.088,0.153c-0.062,0.14-0.107,0.287-0.186,0.418
					c-0.127,0.215-0.304,0.349-0.564,0.332c-0.294-0.016-0.479-0.186-0.578-0.453c-0.039-0.111-0.039-0.111-0.156-0.115
					c-0.039,0-0.079,0-0.118,0c-0.087-0.003-0.104-0.016-0.104-0.104c0-0.026,0-0.055,0-0.081
					C263.988,253.596,263.988,253.596,264.174,253.593z"/>
			</g>
		</g>
	</g>
</g>
</svg>
